<?xml version="1.0" encoding="UTF-8"?>
<!DOCTYPE svg PUBLIC "-//W3C//DTD SVG 1.1//EN" "http://www.w3.org/Graphics/SVG/1.1/DTD/svg11.dtd">
<svg xmlns="http://www.w3.org/2000/svg" version="1.1" width="150px" height="150px" style="shape-rendering:geometricPrecision; text-rendering:geometricPrecision; image-rendering:optimizeQuality; fill-rule:evenodd; clip-rule:evenodd" xmlns:xlink="http://www.w3.org/1999/xlink">
<rect x="0" y="0" width="150" height="150" fill="#faf6ed"/>
<g><path fill="#faf6ed" stroke="#faf6ed" stroke-width="0.5" d="M 0,0 C 50,0 100,0 150,0 C 150,50 150,100 150,150 C 100,150 50,150 0,150 C 0,100 0,50 0,0 Z M 31.74,37.74 C 21.62,49.46 16.9,63.04 17.57,78.5 C 18.28,90.04 21.96,100.55 28.6,110.03 C 37.96,123.12 50.52,131.25 66.3,134.42 C 73.54,135.76 80.78,135.82 88.04,134.61 C 99.28,132.35 109.04,127.26 117.3,119.32 C 120.47,116.23 123.24,112.81 125.6,109.07 C 125.77,108.69 125.7,108.36 125.4,108.06 C 124.05,106.7 122.62,106.57 121.09,107.69 C 120.19,109.62 118.72,110.31 116.66,109.76 C 112.36,108.45 108.81,106.03 105.98,102.51 C 100.56,95.45 95.55,88.1 90.96,80.48 C 89.61,78.81 88.32,77.11 87.07,75.39 C 86.99,74.86 87.14,74.42 87.54,74.07 C 89.31,73.25 91,72.3 92.63,71.24 C 96.47,68.56 98.87,64.94 99.81,60.36 C 100.98,54.98 100.01,50.04 96.89,45.54 C 92.87,40.81 87.74,38.19 81.51,37.69 C 71.47,37.55 61.45,37.61 51.44,37.87 C 50.88,38.23 50.73,38.72 50.98,39.33 C 52.47,40.22 53.98,41.09 55.53,41.96 C 56.26,43.39 56.6,44.93 56.52,46.56 C 56.48,50.1 56.41,53.64 56.32,57.18 C 56.26,57.64 56,57.86 55.54,57.85 C 54.45,57 53.39,56.11 52.36,55.17 C 51.79,54.87 51.21,54.84 50.61,55.09 C 48.94,56.59 47.31,58.14 45.74,59.74 C 38.68,66.82 31.62,73.9 24.54,80.96 C 24.13,81.5 23.64,81.64 23.08,81.38 C 22.67,77.43 22.66,73.46 23.05,69.5 C 24.3,58.31 28.68,48.53 36.18,40.15 C 45.75,29.97 57.52,24.72 71.5,24.39 C 81.36,24.46 90.2,27.5 98.01,33.49 C 100.2,35.49 102.14,37.71 103.83,40.16 C 107.65,45.94 108.86,52.21 107.47,58.99 C 105.72,66.67 101.36,72.33 94.38,75.97 C 93.64,77.15 93.96,77.73 95.35,77.7 C 102.9,75.3 108.34,70.5 111.67,63.3 C 114.86,55.42 114.64,47.63 111.01,39.95 C 109.58,37.04 107.71,34.46 105.39,32.21 C 96.09,23.71 85.13,19.36 72.5,19.17 C 56.05,19.1 42.47,25.29 31.74,37.74 Z M 66.04,52 C 66.07,49.5 66.07,46.99 66.03,44.49 C 66.16,43.04 66.98,42.44 68.47,42.69 C 72.15,42.68 75.83,42.76 79.5,42.94 C 86.1,44.16 89.78,48.08 90.55,54.71 C 91.54,66.37 86.19,72.07 74.5,71.83 C 72.64,72.04 70.84,71.83 69.11,71.2 C 67.81,70.2 66.83,68.96 66.19,67.47 C 66.08,62.32 66.03,57.16 66.04,52 Z"/></g>
<g><path fill="#fbf6dd" stroke="#fbf6dd" stroke-width="0.5" d="M 35.09,101.89 C 33.61,102.7 32.38,103.81 31.43,105.22 C 29.37,102.1 27.68,98.79 26.36,95.28 C 26.16,94.78 26.1,94.27 26.2,93.75 C 26.69,93.55 27.11,93.68 27.45,94.16 C 30.08,96.65 32.63,99.23 35.09,101.89 Z"/></g>
<g><path fill="#f9f5e9" stroke="#f9f5e9" stroke-width="0.5" d="M 49.84,81.88 C 46.92,78.72 44.02,75.56 41.13,72.39 C 41.03,71.86 41.15,71.37 41.48,70.95 C 43.3,69.13 45.12,67.31 46.96,65.51 C 47.32,65.08 47.63,64.61 47.86,64.1 C 48.98,63.38 49.99,62.54 50.91,61.58 C 51.3,61.38 51.71,61.36 52.13,61.52 C 55.18,64.41 58.19,67.35 61.15,70.34 C 62.03,71.15 62.12,72.03 61.41,72.99 C 58.42,75.96 55.45,78.94 52.51,81.96 C 51.62,82.59 50.73,82.56 49.84,81.88 Z M 46.67,85.32 C 46.87,85.7 46.99,86.1 47.03,86.52 C 45.59,88.92 43.8,91.04 41.65,92.87 C 40.53,94.1 39.26,95.16 37.85,96.04 C 37.52,96.34 37.14,96.43 36.71,96.31 C 35.85,95.68 35,95.03 34.16,94.37 C 31.76,91.81 29.27,89.35 26.68,86.99 C 26.38,86.4 26.43,85.84 26.84,85.31 C 29.9,81.99 33.15,78.9 36.59,76.01 C 37.41,75.98 38.08,76.28 38.62,76.91 C 41.46,79.57 44.14,82.38 46.67,85.32 Z M 55.23,86.01 C 58.18,82.87 61.2,79.8 64.28,76.8 C 65.12,75.87 66.04,75.75 67.07,76.45 C 69.76,79.08 72.44,81.72 75.12,84.36 C 76.34,85.5 76.36,86.68 75.2,87.9 C 72.48,90.72 69.71,93.49 66.89,96.2 C 66.02,96.9 65.2,96.85 64.41,96.08 C 61.72,93.43 59.05,90.76 56.42,88.07 C 55.82,87.5 55.43,86.81 55.23,86.01 Z M 83.22,86.81 C 83.85,86.96 84.49,87 85.14,86.9 C 88.3,92.21 91.34,97.59 94.27,103.03 C 96.49,106.59 99.38,109.49 102.93,111.72 C 105.03,112.62 107.22,113.19 109.5,113.43 C 111.13,113.42 112.77,113.39 114.4,113.36 C 115.05,113.76 115.23,114.35 114.93,115.11 C 111.76,117.81 108.43,120.3 104.95,122.59 C 103.05,123.73 101.09,124.76 99.07,125.68 C 89.95,129.79 80.43,131.18 70.5,129.85 C 53.87,127.36 40.85,119.15 31.43,105.22 C 32.38,103.81 33.61,102.7 35.09,101.89 C 38.42,105.47 41.86,108.95 45.4,112.32 C 47.05,114.27 48.89,115.99 50.94,117.5 C 53,116.33 54.89,114.9 56.59,113.2 C 57.03,112.93 57.51,112.73 58.02,112.63 C 62.8,112.51 67.56,112.28 72.32,111.94 C 72.86,111.35 72.86,110.75 72.32,110.14 C 70.88,109.51 69.43,108.94 67.94,108.42 C 66.14,107.38 65.6,105.89 66.3,103.94 C 71.75,98.04 77.39,92.33 83.22,86.81 Z M 48.17,108.56 C 46.49,106.83 44.81,105.1 43.13,103.36 C 42.37,102.55 41.8,101.64 41.41,100.63 C 43.23,97.86 45.39,95.36 47.87,93.13 C 48.83,92.22 49.83,91.36 50.87,90.55 C 51.3,90.34 51.69,90.38 52.07,90.67 C 55.28,93.35 58.27,96.27 61.02,99.43 C 61.73,100.14 61.77,100.88 61.15,101.65 C 58.21,104.72 55.22,107.73 52.16,110.67 C 51.67,110.92 51.17,110.93 50.68,110.68 C 49.82,110.01 48.98,109.3 48.17,108.56 Z"/></g>
<g><path fill="#fbf3d1" d="M 85.14,86.9 C 84.49,87 83.85,86.96 83.22,86.81 C 82.81,85.77 82.27,84.81 81.59,83.93 C 79.36,81.93 77.29,79.79 75.38,77.51 C 75.56,77.06 75.91,76.82 76.42,76.8 C 78.14,76.33 79.49,76.81 80.46,78.26 C 81.93,81.19 83.49,84.07 85.14,86.9 Z"/></g>
<g><path fill="#b9a04a" stroke="#b9a04a" stroke-width="0.5" d="M 117.3,119.32 C 116.7,119.4 116.19,119.22 115.76,118.8 C 115.26,117.62 114.98,116.4 114.93,115.11 C 115.23,114.35 115.05,113.76 114.4,113.36 C 112.77,113.39 111.13,113.42 109.5,113.43 C 107.22,113.19 105.03,112.62 102.93,111.72 C 99.38,109.49 96.49,106.59 94.27,103.03 C 91.34,97.59 88.3,92.21 85.14,86.9 C 83.49,84.07 81.93,81.19 80.46,78.26 C 79.49,76.81 78.14,76.33 76.42,76.8 C 75.91,76.82 75.56,77.06 75.38,77.51 C 77.29,79.79 79.36,81.93 81.59,83.93 C 82.27,84.81 82.81,85.77 83.22,86.81 C 77.39,92.33 71.75,98.04 66.3,103.94 C 65.6,105.89 66.14,107.38 67.94,108.42 C 69.43,108.94 70.88,109.51 72.32,110.14 C 72.86,110.75 72.86,111.35 72.32,111.94 C 67.56,112.28 62.8,112.51 58.02,112.63 C 57.51,112.73 57.03,112.93 56.59,113.2 C 54.89,114.9 53,116.33 50.94,117.5 C 48.89,115.99 47.05,114.27 45.4,112.32 C 45.95,110.79 46.88,109.54 48.17,108.56 C 48.98,109.3 49.82,110.01 50.68,110.68 C 51.17,110.93 51.67,110.92 52.16,110.67 C 55.22,107.73 58.21,104.72 61.15,101.65 C 61.77,100.88 61.73,100.14 61.02,99.43 C 58.27,96.27 55.28,93.35 52.07,90.67 C 51.69,90.38 51.3,90.34 50.87,90.55 C 49.83,91.36 48.83,92.22 47.87,93.13 C 47.46,92.98 47.08,93.03 46.73,93.3 C 45.78,94.28 44.69,95.03 43.45,95.56 C 43.05,95.56 42.73,95.39 42.5,95.06 C 42.16,94.35 41.88,93.62 41.65,92.87 C 43.8,91.04 45.59,88.92 47.03,86.52 C 46.99,86.1 46.87,85.7 46.67,85.32 C 48.68,85.19 49.23,84.26 48.32,82.55 C 48.75,82.17 49.26,81.94 49.84,81.88 C 50.73,82.56 51.62,82.59 52.51,81.96 C 55.45,78.94 58.42,75.96 61.41,72.99 C 62.12,72.03 62.03,71.15 61.15,70.34 C 58.19,67.35 55.18,64.41 52.13,61.52 C 51.71,61.36 51.3,61.38 50.91,61.58 C 49.99,62.54 48.98,63.38 47.86,64.1 C 46.93,64.09 46.11,64.42 45.4,65.08 C 44.56,64.94 44.07,64.45 43.93,63.62 C 44.6,63.22 45.21,62.76 45.78,62.23 C 46.03,61.4 46.02,60.57 45.74,59.74 C 47.31,58.14 48.94,56.59 50.61,55.09 C 51.21,54.84 51.79,54.87 52.36,55.17 C 53.39,56.11 54.45,57 55.54,57.85 C 56,57.86 56.26,57.64 56.32,57.18 C 56.41,53.64 56.48,50.1 56.52,46.56 C 56.6,44.93 56.26,43.39 55.53,41.96 C 53.98,41.09 52.47,40.22 50.98,39.33 C 50.73,38.72 50.88,38.23 51.44,37.87 C 61.45,37.61 71.47,37.55 81.51,37.69 C 87.74,38.19 92.87,40.81 96.89,45.54 C 100.01,50.04 100.98,54.98 99.81,60.36 C 98.87,64.94 96.47,68.56 92.63,71.24 C 91,72.3 89.31,73.25 87.54,74.07 C 87.14,74.42 86.99,74.86 87.07,75.39 C 88.32,77.11 89.61,78.81 90.96,80.48 C 95.55,88.1 100.56,95.45 105.98,102.51 C 108.81,106.03 112.36,108.45 116.66,109.76 C 118.72,110.31 120.19,109.62 121.09,107.69 C 122.62,106.57 124.05,106.7 125.4,108.06 C 125.7,108.36 125.77,108.69 125.6,109.07 C 123.24,112.81 120.47,116.23 117.3,119.32 Z M 66.04,52 C 66.03,57.16 66.08,62.32 66.19,67.47 C 66.83,68.96 67.81,70.2 69.11,71.2 C 70.84,71.83 72.64,72.04 74.5,71.83 C 86.19,72.07 91.54,66.37 90.55,54.71 C 89.78,48.08 86.1,44.16 79.5,42.94 C 75.83,42.76 72.15,42.68 68.47,42.69 C 66.98,42.44 66.16,43.04 66.03,44.49 C 66.07,46.99 66.07,49.5 66.04,52 Z M 55.23,86.01 C 55.43,86.81 55.82,87.5 56.42,88.07 C 59.05,90.76 61.72,93.43 64.41,96.08 C 65.2,96.85 66.02,96.9 66.89,96.2 C 69.71,93.49 72.48,90.72 75.2,87.9 C 76.36,86.68 76.34,85.5 75.12,84.36 C 72.44,81.72 69.76,79.08 67.07,76.45 C 66.04,75.75 65.12,75.87 64.28,76.8 C 61.2,79.8 58.18,82.87 55.23,86.01 Z"/></g>
<g><path fill="#b9a14e" stroke="#b9a14e" stroke-width="0.5" d="M 31.74,37.74 C 31.78,39.1 32.02,40.4 32.45,41.63 C 32.87,41.56 33.21,41.36 33.48,41.03 C 33.81,40.11 34.13,39.19 34.41,38.28 C 35.34,38.59 35.93,39.21 36.18,40.15 C 28.68,48.53 24.3,58.31 23.05,69.5 C 22.66,73.46 22.67,77.43 23.08,81.38 C 23.64,81.64 24.13,81.5 24.54,80.96 C 31.62,73.9 38.68,66.82 45.74,59.74 C 46.02,60.57 46.03,61.4 45.78,62.23 C 45.21,62.76 44.6,63.22 43.93,63.62 C 44.07,64.45 44.56,64.94 45.4,65.08 C 46.11,64.42 46.93,64.09 47.86,64.1 C 47.63,64.61 47.32,65.08 46.96,65.51 C 45.12,67.31 43.3,69.13 41.48,70.95 C 41.15,71.37 41.03,71.86 41.13,72.39 C 44.02,75.56 46.92,78.72 49.84,81.88 C 49.26,81.94 48.75,82.17 48.32,82.55 C 49.23,84.26 48.68,85.19 46.67,85.32 C 44.14,82.38 41.46,79.57 38.62,76.91 C 38.08,76.28 37.41,75.98 36.59,76.01 C 33.15,78.9 29.9,81.99 26.84,85.31 C 26.43,85.84 26.38,86.4 26.68,86.99 C 29.27,89.35 31.76,91.81 34.16,94.37 C 35,95.03 35.85,95.68 36.71,96.31 C 37.14,96.43 37.52,96.34 37.85,96.04 C 39.26,95.16 40.53,94.1 41.65,92.87 C 41.88,93.62 42.16,94.35 42.5,95.06 C 42.73,95.39 43.05,95.56 43.45,95.56 C 44.69,95.03 45.78,94.28 46.73,93.3 C 47.08,93.03 47.46,92.98 47.87,93.13 C 45.39,95.36 43.23,97.86 41.41,100.63 C 41.8,101.64 42.37,102.55 43.13,103.36 C 44.81,105.1 46.49,106.83 48.17,108.56 C 46.88,109.54 45.95,110.79 45.4,112.32 C 41.86,108.95 38.42,105.47 35.09,101.89 C 32.63,99.23 30.08,96.65 27.45,94.16 C 27.11,93.68 26.69,93.55 26.2,93.75 C 26.1,94.27 26.16,94.78 26.36,95.28 C 27.68,98.79 29.37,102.1 31.43,105.22 C 40.85,119.15 53.87,127.36 70.5,129.85 C 80.43,131.18 89.95,129.79 99.07,125.68 C 101.09,124.76 103.05,123.73 104.95,122.59 C 108.43,120.3 111.76,117.81 114.93,115.11 C 114.98,116.4 115.26,117.62 115.76,118.8 C 116.19,119.22 116.7,119.4 117.3,119.32 C 109.04,127.26 99.28,132.35 88.04,134.61 C 80.78,135.82 73.54,135.76 66.3,134.42 C 50.52,131.25 37.96,123.12 28.6,110.03 C 21.96,100.55 18.28,90.04 17.57,78.5 C 16.9,63.04 21.62,49.46 31.74,37.74 Z M 111.01,39.95 C 114.64,47.63 114.86,55.42 111.67,63.3 C 108.34,70.5 102.9,75.3 95.35,77.7 C 93.96,77.73 93.64,77.15 94.38,75.97 C 101.36,72.33 105.72,66.67 107.47,58.99 C 108.86,52.21 107.65,45.94 103.83,40.16 C 104.53,38.09 105.58,37.86 106.98,39.48 C 107.47,39.62 107.95,39.59 108.44,39.4 C 109.07,40.55 109.93,40.73 111.01,39.95 Z"/></g>
<g><path fill="#c3aa52" stroke="#c3aa52" stroke-width="0.5" d="M 111.01,39.95 C 109.93,40.73 109.07,40.55 108.44,39.4 C 107.95,39.59 107.47,39.62 106.98,39.48 C 105.58,37.86 104.53,38.09 103.83,40.16 C 102.14,37.71 100.2,35.49 98.01,33.49 C 90.2,27.5 81.36,24.46 71.5,24.39 C 57.52,24.72 45.75,29.97 36.18,40.15 C 35.93,39.21 35.34,38.59 34.41,38.28 C 34.13,39.19 33.81,40.11 33.48,41.03 C 33.21,41.36 32.87,41.56 32.45,41.63 C 32.02,40.4 31.78,39.1 31.74,37.74 C 42.47,25.29 56.05,19.1 72.5,19.17 C 85.13,19.36 96.09,23.71 105.39,32.21 C 107.71,34.46 109.58,37.04 111.01,39.95 Z"/></g>
</svg>
